HIERARCHY
ROOT Hips
{
     OFFSET 1.88212 96.90440 -13.34250
     CHANNELS 6 Xposition Yposition Zposition Zrotation Xrotation Yrotation
     JOINT Spine
     {
          OFFSET 0.00000 11.89050 0.00000
          CHANNELS 3 Zrotation Xrotation Yrotation
          JOINT Spine1
          {
               OFFSET -0.00000 25.65740 0.12766
               CHANNELS 3 Zrotation Xrotation Yrotation
               JOINT HEad
               {
                    OFFSET 0.00000 8.73416 0.01134
                    CHANNELS 3 Zrotation Xrotation Yrotation
                    End Site
                    {
                         OFFSET -0.29000 12.77420 2.51395
                    }
               }
               JOINT LeftShoulder1
               {
                    OFFSET 8.99000 -0.36225 -0.22000
                    CHANNELS 3 Zrotation Xrotation Yrotation
                    JOINT LeftArm
                    {
                         OFFSET 10.28270 -0.00338 0.32212
                         CHANNELS 3 Zrotation Xrotation Yrotation
                         JOINT LeftForeArm
                         {
                              OFFSET 32.76690 0.09914 -1.42434
                              CHANNELS 3 Zrotation Xrotation Yrotation
                              JOINT LeftHand
                              {
                                   OFFSET 27.56430 0.08536 1.02216
                                   CHANNELS 3 Zrotation Xrotation Yrotation
                                   End Site
                                   {
                                        OFFSET 16.74430 -0.60000 1.50291
                                   }
                              }
                         }
                    }
               }
               JOINT RightShoulder
               {
                    OFFSET -8.99000 -0.36225 -0.22000
                    CHANNELS 3 Zrotation Xrotation Yrotation
                    JOINT RightArm
                    {
                         OFFSET -10.28270 -0.00338 0.32212
                         CHANNELS 3 Zrotation Xrotation Yrotation
                         JOINT RightForeArm
                         {
                              OFFSET -32.89710 0.09914 -1.42434
                              CHANNELS 3 Zrotation Xrotation Yrotation
                              JOINT RightHand
                              {
                                   OFFSET -27.49210 0.08536 1.02216
                                   CHANNELS 3 Zrotation Xrotation Yrotation
                                   End Site
                                   {
                                        OFFSET -16.63120 -0.60000 1.50291
                                   }
                              }
                         }
                    }
               }
          }
     }
     JOINT LeftUpLeg
     {
          OFFSET 8.94580 -8.66707 0.10165
          CHANNELS 3 Zrotation Xrotation Yrotation
          JOINT LeftLeg
          {
               OFFSET 0.00000 -44.42270 1.37270
               CHANNELS 3 Zrotation Xrotation Yrotation
               JOINT LeftFoot
               {
                    OFFSET -0.25355 -42.09240 -1.46059
                    CHANNELS 3 Zrotation Xrotation Yrotation
                    JOINT LeftToes
                    {
                         OFFSET -0.04000 -4.41509 8.49910
                         CHANNELS 3 Zrotation Xrotation Yrotation
                         End Site
                         {
                              OFFSET 0.08000 -0.04745 9.77979
                         }
                    }
               }
          }
     }
     JOINT RightUpLeg
     {
          OFFSET -8.94580 -8.66707 0.10165
          CHANNELS 3 Zrotation Xrotation Yrotation
          JOINT RightLeg
          {
               OFFSET 0.00000 -44.42270 1.37270
               CHANNELS 3 Zrotation Xrotation Yrotation
               JOINT RightFoot
               {
                    OFFSET 0.25355 -42.09240 -1.46059
                    CHANNELS 3 Zrotation Xrotation Yrotation
                    JOINT RightToes
                    {
                         OFFSET 0.04000 -4.41509 8.49910
                         CHANNELS 3 Zrotation Xrotation Yrotation
                         End Site
                         {
                              OFFSET -0.08000 -0.13745 9.77979
                         }
                    }
               }
          }
     }
}
MOTION
Frames: 20
Frame Time: 0.01667
104.41069 93.14034 0.29193 -24.90146 38.85684 -180.92448 -26.25625 37.99365 10.21784 -0.05679 0.07017 0.02017 -11.07131 12.39326 11.01269 -5.49394 7.37491 3.84834 -61.77134 -68.69128 -44.11968 -28.38407 33.86506 -81.59573 15.73370 8.50194 -21.16079 15.78683 2.67751 6.66162 65.57003 23.99942 61.21344 -0.20939 27.22991 99.42063 18.96448 12.30135 5.19319 17.66764 -26.97018 40.98769 -24.18640 86.29408 47.25331 -20.08180 0.17962 0.16467 -5.38413 11.95362 0.50159 -43.08150 13.08592 23.46906 42.95999 17.44150 -43.72658 -25.67510 0.00632 -0.00673 -1.80876 -35.69852 19.81124 
104.57269 93.64368 1.20366 -25.23047 37.55614 -179.61334 -29.36003 39.44741 12.19822 0.00579 -0.00272 -0.00524 -10.83460 11.62763 10.47553 -10.36019 10.76456 2.86530 -75.19704 -73.19814 -65.57475 -30.54904 37.69239 -81.87782 17.38876 8.19777 -22.25233 14.18601 3.14606 5.48515 67.78597 22.24220 63.36866 -0.57124 27.15701 100.68552 18.95003 12.25029 4.89131 12.73219 -27.98228 44.48683 52.05285 82.67740 -28.06944 -12.65075 0.11267 0.12006 -0.85397 16.50021 -0.09351 -42.77568 12.83013 21.81338 42.38023 16.50119 -43.65645 -24.50266 0.00759 -0.00894 -2.59876 -34.73052 20.57002 
104.77107 94.05524 2.06712 -25.52774 36.28725 -178.37463 -32.26768 40.59607 14.10182 0.00848 -0.00611 -0.00610 -10.66224 11.09971 9.95018 -12.74022 12.81388 1.88821 -96.89053 -74.52922 -92.04749 -32.73989 42.40861 -81.39188 18.94409 8.12780 -21.81125 13.46745 3.24627 4.15057 69.52761 20.84814 64.60181 -0.94215 27.08833 102.07118 18.96692 12.23659 4.57630 8.00512 -28.84674 47.38091 67.02943 76.47382 -41.78410 -8.17588 0.06615 0.08173 1.12408 18.40413 -0.34553 -42.36207 12.66997 20.21789 41.52887 15.46797 -43.52069 -23.19154 0.00774 -0.01147 -3.45642 -33.65987 21.35733 
104.98413 94.38243 2.84485 -25.73494 35.01860 -177.23625 -34.91367 41.44548 15.87244 0.00686 -0.00526 -0.00591 -10.58791 10.83929 9.48738 -13.41312 13.84261 0.88931 -117.68693 -72.42918 -115.19313 -35.29835 47.86843 -79.94322 20.38208 8.17893 -20.69296 13.20459 3.12579 2.78385 71.02644 19.61692 65.22719 -1.22143 26.99386 103.41469 19.01273 12.26997 4.27510 3.47736 -29.50740 49.67991 72.25479 70.55067 -45.25289 -6.59295 0.03486 0.04663 2.47631 18.84814 -0.07901 -41.79004 12.59640 18.65629 40.46933 14.36168 -43.32064 -21.76074 0.00706 -0.01350 -4.39973 -32.53395 22.12082 
105.17298 94.43114 3.50155 -25.26369 33.25444 -176.34381 -36.51805 41.83854 16.94463 0.00345 -0.00344 -0.00473 -10.82206 11.10117 9.15818 -12.94224 14.09206 -0.02561 -128.86641 -68.25733 -126.36269 -36.78868 53.40722 -79.07800 20.08658 4.95434 -13.55688 13.24936 2.89217 1.48298 72.35315 18.30982 65.58169 -1.17032 26.27161 103.10321 17.68948 10.66829 0.05351 -1.06167 -29.78892 51.00212 69.45995 63.67154 -41.21374 -4.60185 0.03341 -0.00664 3.32464 18.09852 -5.49708 -40.63813 12.50659 16.97212 39.33333 12.88383 -43.22256 -20.21912 0.00619 -0.01439 -6.58549 -28.04786 17.17589 
105.25326 94.40701 3.98532 -24.10073 31.02899 -175.69492 -37.02429 41.79697 17.28993 0.00293 -0.00360 -0.00517 -11.33027 11.88143 8.97756 -11.66655 13.72287 -0.93864 -134.90921 -64.25348 -131.51482 -38.79117 58.17512 -77.60844 20.39058 3.48261 -8.99454 13.47405 2.54540 0.25610 73.59104 16.96736 65.77977 -0.87663 24.99867 101.29350 17.40815 10.16449 -0.19585 -5.42225 -29.77218 51.41393 66.16244 56.52471 -37.01665 -4.11331 0.01135 -0.00517 4.74403 15.68610 -13.90830 -38.94451 12.30869 15.20350 38.25267 11.02189 -43.24889 -18.65107 0.00503 -0.01428 -8.45696 -24.68042 13.91667 
105.23584 94.34724 4.31770 -22.31746 28.39986 -175.23575 -36.49582 41.33851 16.95476 0.00315 -0.00463 -0.00624 -11.87669 12.77082 8.87264 -9.87490 12.88611 -1.87989 -138.76140 -60.80446 -133.83176 -41.27024 62.23364 -75.55382 20.81648 3.13027 -6.06385 13.82184 2.09896 -0.95717 74.75581 15.69609 65.89207 -0.57135 23.24949 98.26007 17.90733 10.33577 2.37957 -9.41846 -29.57700 51.02896 63.42550 49.38006 -33.53507 -4.66922 0.00251 0.00621 5.63359 11.57700 -23.51511 -36.78953 11.91813 13.41789 37.29843 8.77291 -43.42031 -17.11874 0.00414 -0.01382 -10.25446 -22.09380 11.76357 
105.10997 94.32944 4.47990 -18.79421 24.67965 -175.45015 -33.32819 39.62545 15.07505 0.01395 -0.01241 -0.01849 -12.51561 13.83757 8.96391 -7.08207 10.89872 -3.11762 -141.06232 -59.66680 -133.32587 -42.88696 64.40624 -74.05313 20.93151 5.01798 -6.72779 15.12303 1.17422 -1.67045 75.04063 14.30174 65.65026 -0.02447 22.30902 96.30145 18.84433 11.52098 6.83123 -11.74422 -29.71625 48.80697 60.34775 43.13726 -29.92655 -7.45031 -0.00294 0.03525 4.86438 3.93072 -34.85067 -33.53297 11.10070 11.86525 36.82027 5.46588 -43.89088 -15.65703 0.00298 -0.01197 -12.12775 -21.49383 12.05284 
104.87663 94.37302 4.48418 -13.99418 20.15010 -176.09079 -28.13988 36.31600 12.16598 0.01417 -0.00798 -0.01799 -13.39378 15.39366 9.45101 -4.97780 9.65470 -3.88817 -142.69164 -59.26397 -132.54306 -43.59282 65.58253 -73.40310 20.43514 5.04154 -5.69198 16.09177 0.94161 -2.31402 75.32715 13.02235 65.75706 0.65292 21.88603 95.05560 18.93545 11.54536 7.42942 -12.12327 -30.08628 45.38096 56.98273 37.89578 -26.20195 -9.44875 -0.00067 0.02969 3.43625 -3.40675 -44.29305 -28.95866 8.96343 10.07806 36.41816 2.37371 -44.57113 -14.28363 0.00363 -0.00966 -14.04109 -20.26038 11.40882 
104.56319 94.46154 4.35357 -10.00457 16.23686 -176.36110 -23.62385 32.79243 9.53556 0.01338 -0.00241 -0.01603 -14.54713 17.30989 10.33699 -3.53263 9.09172 -4.26047 -144.00006 -59.35376 -131.74507 -43.54523 66.26958 -73.60941 20.05111 6.27682 -6.47126 16.77054 1.32679 -2.85085 75.54160 11.81671 66.03073 1.37041 21.79708 94.39565 19.32525 12.18894 9.44123 -11.89620 -29.42738 41.53111 53.25519 33.67661 -22.21906 -11.84357 -0.00379 0.03649 4.77956 0.53638 -40.65519 -25.10698 6.87544 8.97104 36.04615 -0.49812 -45.38895 -12.93138 0.00469 -0.00876 -16.08319 -19.62418 11.45338 
104.20271 94.54728 4.10758 -6.69439 12.94121 -176.44557 -19.71337 29.21224 7.15999 0.01164 0.00346 -0.01327 -15.97177 19.44226 11.59015 -2.65782 9.10567 -4.31050 -145.13101 -59.76376 -131.00681 -42.89269 66.72520 -74.51153 19.52118 6.39989 -6.02556 17.17620 2.22268 -3.24177 75.68779 10.64041 66.37124 2.07956 21.90256 94.10839 19.21608 12.11086 9.33906 -10.93316 -28.00430 37.47734 49.10251 30.43283 -17.83024 -13.77789 0.00025 0.03232 -0.57865 -11.98447 -55.91700 -21.93412 5.00199 8.43210 35.65949 -3.10840 -46.27087 -11.49930 0.00590 -0.00882 -18.19516 -19.02700 11.35828 
103.81100 94.60993 3.75629 -3.95508 10.23254 -176.47409 -16.32705 25.68896 5.01611 0.00906 0.00909 -0.01014 -17.64187 21.66507 13.16741 -2.25144 9.59031 -4.07779 -146.15968 -60.36140 -130.35315 -41.79621 67.06979 -75.93605 19.14370 7.19226 -6.53796 17.33426 3.53031 -3.48967 75.79006 9.50001 66.72520 2.73087 22.13175 94.09071 19.35577 12.45044 10.20926 -9.24526 -26.05063 33.28041 44.46072 28.06886 -12.88839 -15.45091 0.00456 0.02951 3.36068 -4.33322 -47.30587 -19.37075 3.46583 8.34681 35.23756 -5.40717 -47.15644 -9.90462 0.00705 -0.00907 -20.36353 -18.76307 11.47519 
103.39722 94.64003 3.31132 -1.69849 8.06461 -176.53006 -13.39499 22.30633 3.08265 0.00576 0.01440 -0.00667 -19.51159 23.87367 15.01772 -2.22892 10.44691 -3.59933 -147.11133 -61.04827 -129.80171 -40.38323 67.33730 -77.67827 18.76272 7.31768 -6.22383 17.26243 5.16181 -3.58133 75.89451 8.39324 67.08485 3.28811 22.42914 94.20373 19.16456 12.36907 9.93893 -6.95564 -23.77257 28.88742 39.23248 26.47906 -7.25021 -16.60127 0.00976 0.02134 2.47848 -6.95247 -50.71766 -17.33888 2.32946 8.60712 34.78593 -7.35042 -48.00353 -8.10646 0.00800 -0.00880 -22.53095 -18.66405 11.56197 
102.96152 94.64397 2.79027 0.14734 6.38879 -176.66002 -11.01752 19.50505 1.59171 0.00373 0.01520 -0.00560 -21.22725 25.70773 16.72425 -2.32120 11.21743 -3.11657 -147.98219 -61.75417 -129.33913 -38.76942 67.52514 -79.58261 18.47432 7.79685 -6.46177 17.14352 6.62133 -3.63522 76.02837 7.36827 67.43932 3.70692 22.77567 94.42067 19.15478 12.56940 10.30560 -4.18580 -21.31629 24.21505 33.39499 25.43111 -0.82651 -17.09352 0.01578 0.01325 3.59693 -4.86771 -48.47288 -15.76468 1.60432 9.11866 34.32764 -8.92966 -48.78240 -6.11466 0.00875 -0.00778 -24.66783 -18.73108 11.68883 
102.50040 94.63136 2.21755 1.64191 5.15694 -176.88461 -9.08684 17.26943 0.44953 0.00168 0.01554 -0.00482 -22.72709 27.19382 18.24130 -2.47780 11.89443 -2.63957 -148.73021 -62.43912 -128.93356 -37.03133 67.60220 -81.51392 18.20092 7.86611 -6.21259 16.99020 7.91573 -3.64114 76.21785 6.42681 67.78066 3.96210 23.15239 94.70284 18.88923 12.49246 10.07054 -1.06728 -18.80470 19.16724 26.90453 24.68692 6.43545 -16.99056 0.01872 0.00579 3.69869 -5.59432 -49.29224 -14.58450 1.25529 9.80114 33.89093 -10.15424 -49.47667 -3.96871 0.00925 -0.00629 -26.73979 -18.87440 11.80429 
102.02010 94.61754 1.61819 2.83746 4.32195 -177.20877 -7.52756 15.57065 -0.41562 -0.00012 0.01574 -0.00416 -23.96637 28.36690 19.54014 -2.65571 12.47542 -2.17101 -149.24055 -63.08593 -128.48177 -35.20380 67.52095 -83.41179 17.95080 8.11639 -6.31628 16.82993 9.05414 -3.59841 76.46575 5.57839 68.09782 4.04326 23.55552 95.05164 18.75287 12.55993 10.23738 2.18256 -16.39237 13.63296 19.63445 23.48594 14.57345 -16.34082 -0.00077 -0.01033 4.64318 -5.06514 -48.70395 -13.73952 1.21839 10.58967 33.49906 -11.04349 -50.07883 -1.72101 0.00946 -0.00468 -28.72681 -19.06792 11.94711 
101.53144 94.61714 1.02111 3.77840 3.83418 -177.62373 -6.28815 14.36857 -1.06256 -0.00160 0.01567 -0.00350 -24.91507 29.26219 20.60508 -2.82864 12.96054 -1.70697 -149.43274 -63.68343 -127.90656 -33.36090 67.25971 -85.19156 17.69800 8.11804 -6.14331 16.69047 10.04520 -3.49836 76.76586 4.81792 68.38851 3.96512 23.97465 95.44549 18.44588 12.42260 10.08850 5.42132 -14.15443 7.54528 11.98562 21.69260 23.40953 -15.29870 -0.00392 -0.01294 5.72044 -5.38197 -48.98809 -13.16017 1.41257 11.42966 33.15893 -11.62520 -50.58757 0.56503 0.00936 -0.00322 -30.61230 -19.27122 12.12742 
101.03915 94.63902 0.45866 4.50594 3.63992 -178.11407 -5.32912 13.61280 -1.53813 -0.00268 0.01545 -0.00286 -25.55893 29.91059 21.43214 -2.97769 13.35058 -1.24434 -149.28436 -64.22369 -127.17111 -31.58721 66.83207 -86.79178 17.43707 8.21542 -6.19994 16.59743 10.89737 -3.34087 77.10394 4.14257 68.65254 3.74801 24.40516 95.88171 18.25991 12.37424 10.18174 8.61638 -12.12846 0.88678 4.32909 19.19926 32.70411 -14.10052 -0.00645 -0.00969 7.12461 -5.80692 -49.12681 -12.80323 1.75492 12.27579 32.88260 -11.93113 -50.99978 2.83861 0.00893 -0.00224 -32.38340 -19.44646 12.36853 
100.54060 94.68332 -0.04068 5.05702 3.68354 -178.66150 -4.61722 13.24736 -1.87841 -0.00335 0.01517 -0.00217 -25.89868 30.33709 22.02654 -3.08671 13.64511 -0.78451 -148.81830 -64.69771 -126.27202 -29.94790 66.27045 -88.17251 17.18051 8.17928 -6.10764 16.56284 11.61715 -3.12071 77.46892 3.53917 68.89822 3.41376 24.83446 96.34655 17.97788 12.22714 10.10306 11.78656 -10.36412 -6.33500 -3.06953 15.91703 42.22397 -12.93462 -0.00836 -0.00381 8.67179 -6.83417 -49.60397 -12.64383 2.17018 13.09107 32.67561 -11.99008 -51.30899 5.06798 0.00811 -0.00192 -34.02974 -19.54872 12.66254 
99.99561 94.73394 -0.45750 5.44354 3.91085 -179.24498 -4.13665 13.21468 -2.11246 -0.00360 0.01483 -0.00144 -25.95245 30.56164 22.40077 -3.14554 13.84210 -0.33241 -148.09164 -65.09640 -125.23215 -28.47936 65.62116 -89.33408 16.92562 8.21154 -6.16874 16.58108 12.20824 -2.83655 77.85312 2.99318 69.13799 2.97877 25.25068 96.83868 17.79841 12.17786 10.15744 14.45684 -8.90524 -13.01585 -9.25087 12.08681 50.59885 -11.97842 -0.00860 0.00125 10.35457 -8.22903 -50.10401 -13.54142 2.64482 13.15790 33.66371 -11.66717 -50.70790 7.14316 0.00681 0.00003 -35.59779 -19.62876 12.93241 
